# Blender v2.79 (sub 0) OBJ File: ''
# www.blender.org
mtllib Cornell.mtl
o Cornell_Plane.003
v -24.933216 60.000015 -24.933178
v 24.933216 59.999985 24.933254
v -24.933216 59.999985 24.933254
v 24.933216 60.000015 -24.933178
v 45.000000 0.000016 -22.500000
v 22.500000 0.000028 -45.000000
v 22.500000 0.000016 -22.500000
v 45.000000 -0.000016 22.500000
v 22.500000 0.000000 0.000000
v 22.500000 -0.000016 22.500000
v 0.000000 -0.000016 22.500000
v -22.500000 0.000000 0.000000
v -22.500000 -0.000016 22.500000
v 0.000000 0.000016 -22.500000
v -22.500000 0.000028 -45.000000
v -22.500000 0.000016 -22.500000
v -45.000000 0.000016 -22.500000
v -45.000000 0.000000 0.000000
v -44.999992 -0.000039 45.000004
v -45.000000 -0.000016 22.500000
v 22.500000 -0.000028 45.000000
v 0.000000 -0.000028 45.000000
v 0.000000 0.000000 0.000000
v 45.000000 0.000028 -45.000000
v 45.000000 0.000000 0.000000
v 0.000000 0.000028 -45.000000
v -22.500000 -0.000028 45.000000
v -45.000011 60.000023 -44.999947
v -45.000011 59.999962 45.000050
v -44.999992 0.000017 -44.999992
v 44.999985 60.000031 -44.999954
v 44.999996 59.999969 45.000046
v 45.000000 -0.000028 45.000000
vn 0.0000 -1.0000 -0.0000
vn 0.0000 1.0000 0.0000
vn -1.0000 -0.0000 0.0000
vn 0.0000 -0.0000 1.0000
vn 1.0000 0.0000 0.0000
usemtl Black.004
s 1
f 1//1 2//1 3//1
f 1//1 4//1 2//1
f 5//2 6//2 7//2
f 8//2 9//2 10//2
f 11//2 12//2 13//2
f 14//2 15//2 16//2
f 12//2 17//2 18//2
f 19//2 13//2 20//2
f 21//2 11//2 22//2
f 9//2 14//2 23//2
f 5//2 24//2 6//2
f 8//2 25//2 9//2
f 11//2 23//2 12//2
f 14//2 26//2 15//2
f 12//2 16//2 17//2
f 19//2 27//2 13//2
f 21//2 10//2 11//2
f 9//2 7//2 14//2
usemtl Red.003
f 31//3 33//3 32//3
f 31//3 24//3 33//3
usemtl White.004
f 2//1 29//1 3//1
f 31//4 30//4 24//4
f 4//1 32//1 2//1
f 1//1 31//1 4//1
f 3//1 28//1 1//1
f 23//2 16//2 12//2
f 16//2 30//2 17//2
f 22//2 13//2 27//2
f 13//2 18//2 20//2
f 33//2 10//2 21//2
f 10//2 23//2 11//2
f 25//2 7//2 9//2
f 7//2 26//2 14//2
f 2//1 32//1 29//1
f 31//4 28//4 30//4
f 4//1 31//1 32//1
f 1//1 28//1 31//1
f 3//1 29//1 28//1
f 23//2 14//2 16//2
f 16//2 15//2 30//2
f 22//2 11//2 13//2
f 13//2 12//2 18//2
f 33//2 8//2 10//2
f 10//2 9//2 23//2
f 25//2 5//2 7//2
f 7//2 6//2 26//2
usemtl Blue.003
f 19//5 28//5 29//5
f 19//5 30//5 28//5
