# Blender v2.79 (sub 0) OBJ File: ''
# www.blender.org
mtllib Cornell_Small.mtl
o Cornell_Plane.007
v 0.962828 33.041344 13.730456
v -37.548637 33.041340 24.781017
v -26.498074 33.041344 13.730456
v 12.013385 33.041344 24.781015
v -37.548630 -0.000010 24.781012
v 12.013379 33.041351 -24.781004
v -37.548630 -0.000002 -24.781006
v 12.013387 0.000004 -24.781010
v 0.962828 33.041351 -13.730445
v -26.498074 33.041351 -13.730445
v -37.548637 33.041348 -24.781000
v -12.767623 0.000000 0.000000
v -25.158127 0.000002 -12.390505
v -25.158127 0.000000 0.000000
v -37.548634 0.000002 -12.390505
v -12.767623 -0.000004 24.781010
v -25.158127 -0.000002 12.390505
v -25.158127 -0.000004 24.781010
v -37.548634 0.000000 0.000000
v -37.548634 -0.000002 12.390505
v 12.013387 -0.000004 24.781010
v -0.377118 -0.000002 12.390505
v -0.377118 -0.000004 24.781010
v -12.767623 -0.000002 12.390505
v 12.013387 0.000000 0.000000
v -0.377118 0.000002 -12.390505
v -0.377118 0.000000 0.000000
v -12.767623 0.000004 -24.781010
v -12.767623 0.000002 -12.390505
v -25.158127 0.000004 -24.781010
v 12.013387 -0.000002 12.390505
v 12.013387 0.000002 -12.390505
v -0.377118 0.000004 -24.781010
vn 0.0000 1.0000 0.0000
vn 1.0000 0.0000 0.0000
vn -1.0000 -0.0000 0.0000
vn 0.0000 -1.0000 -0.0000
vn 0.0000 0.0000 -1.0000
vn 0.0000 -0.0000 1.0000
usemtl Black
s 1
f 32//1 33//1 26//1
f 31//1 27//1 22//1
f 24//1 14//1 17//1
f 29//1 30//1 13//1
f 14//1 15//1 19//1
f 5//1 17//1 20//1
f 23//1 24//1 16//1
f 27//1 29//1 12//1
f 32//1 8//1 33//1
f 31//1 25//1 27//1
f 24//1 12//1 14//1
f 29//1 28//1 30//1
f 14//1 13//1 15//1
f 5//1 18//1 17//1
f 23//1 22//1 24//1
f 27//1 26//1 29//1
usemtl Blue
f 5//2 11//2 2//2
f 5//2 7//2 11//2
usemtl Red
f 6//3 21//3 4//3
f 6//3 8//3 21//3
usemtl White
f 1//4 2//4 3//4
f 4//5 5//5 2//5
f 6//6 7//6 8//6
f 9//4 4//4 1//4
f 10//4 6//4 9//4
f 3//4 11//4 10//4
f 12//1 13//1 14//1
f 13//1 7//1 15//1
f 16//1 17//1 18//1
f 17//1 19//1 20//1
f 21//1 22//1 23//1
f 22//1 12//1 24//1
f 25//1 26//1 27//1
f 26//1 28//1 29//1
f 1//4 4//4 2//4
f 4//5 21//5 5//5
f 6//6 11//6 7//6
f 9//4 6//4 4//4
f 10//4 11//4 6//4
f 3//4 2//4 11//4
f 12//1 29//1 13//1
f 13//1 30//1 7//1
f 16//1 24//1 17//1
f 17//1 14//1 19//1
f 21//1 31//1 22//1
f 22//1 27//1 12//1
f 25//1 32//1 26//1
f 26//1 33//1 28//1
usemtl Light
f 10//4 1//4 3//4
f 10//4 9//4 1//4
