# Blender v2.79 (sub 0) OBJ File: ''
# www.blender.org
mtllib Cornell.mtl
o Cornell_Plane.003
v -24.933216 60.000019 -24.933168
v 24.933216 59.999981 24.933264
v -24.933216 59.999981 24.933264
v 24.933216 60.000019 -24.933168
v 45.000000 0.000020 -22.500000
v 22.500000 0.000035 -45.000000
v 22.500000 0.000020 -22.500000
v 45.000000 -0.000020 22.500000
v 22.500000 0.000000 0.000000
v 22.500000 -0.000020 22.500000
v 0.000000 -0.000020 22.500000
v -22.500000 0.000000 0.000000
v -22.500000 -0.000020 22.500000
v 0.000000 0.000020 -22.500000
v -22.500000 0.000035 -45.000000
v -22.500000 0.000020 -22.500000
v -45.000000 0.000020 -22.500000
v -45.000000 0.000000 0.000000
v -44.999992 -0.000046 45.000004
v -45.000000 -0.000020 22.500000
v 22.500000 -0.000035 45.000000
v 0.000000 -0.000035 45.000000
v 0.000000 0.000000 0.000000
v 45.000000 0.000035 -45.000000
v 45.000000 0.000000 0.000000
v 0.000000 0.000035 -45.000000
v -22.500000 -0.000035 45.000000
v 44.999985 60.000038 -44.999943
v 45.000000 -0.000035 45.000000
v 44.999996 59.999962 45.000057
v -45.000011 59.999954 45.000061
v -44.999992 0.000024 -44.999992
v -45.000011 60.000031 -44.999935
vn 1.0000 0.0000 0.0000
vn -0.0000 -1.0000 -0.0000
vn 0.0000 -0.0000 1.0000
vn 0.0000 1.0000 0.0000
vn -1.0000 -0.0000 0.0000
usemtl Blue.003
s 1
f 19//1 33//1 31//1
f 19//1 32//1 33//1
usemtl White.004
f 2//2 31//2 3//2
f 28//3 32//3 24//3
f 4//2 30//2 2//2
f 1//2 28//2 4//2
f 3//2 33//2 1//2
f 23//4 16//4 12//4
f 16//4 32//4 17//4
f 22//4 13//4 27//4
f 13//4 18//4 20//4
f 29//4 10//4 21//4
f 10//4 23//4 11//4
f 25//4 7//4 9//4
f 7//4 26//4 14//4
f 2//2 30//2 31//2
f 28//3 33//3 32//3
f 4//2 28//2 30//2
f 1//2 33//2 28//2
f 3//2 31//2 33//2
f 23//4 14//4 16//4
f 16//4 15//4 32//4
f 22//4 11//4 13//4
f 13//4 12//4 18//4
f 29//4 8//4 10//4
f 10//4 9//4 23//4
f 25//4 5//4 7//4
f 7//4 6//4 26//4
usemtl Black.004
f 5//4 6//4 7//4
f 8//4 9//4 10//4
f 11//4 12//4 13//4
f 14//4 15//4 16//4
f 12//4 17//4 18//4
f 19//4 13//4 20//4
f 21//4 11//4 22//4
f 9//4 14//4 23//4
f 5//4 24//4 6//4
f 8//4 25//4 9//4
f 11//4 23//4 12//4
f 14//4 26//4 15//4
f 12//4 16//4 17//4
f 19//4 27//4 13//4
f 21//4 10//4 11//4
f 9//4 7//4 14//4
usemtl Red.003
f 28//5 29//5 30//5
f 28//5 24//5 29//5
usemtl Light
f 1//2 2//2 3//2
f 1//2 4//2 2//2
