# Blender v2.79 (sub 0) OBJ File: ''
# www.blender.org
mtllib Scene.mtl
o Cornell_Plane.003
v 5.643218 35.709682 14.539476
v 25.952686 35.709656 57.160973
v 5.643218 35.709656 57.160973
v 25.952686 35.709682 14.539476
v 34.125431 0.000013 16.619141
v 24.961691 0.000023 -2.611904
v 24.961691 0.000013 16.619141
v 34.125431 -0.000013 55.081230
v 24.961691 0.000000 35.850185
v 24.961691 -0.000013 55.081230
v 15.797952 -0.000013 55.081230
v 6.634212 0.000000 35.850185
v 6.634212 -0.000013 55.081230
v 15.797952 0.000013 16.619141
v 6.634212 0.000023 -2.611904
v 6.634212 0.000013 16.619141
v -2.529527 0.000013 16.619141
v -2.529527 0.000000 35.850185
v -2.529525 -0.000029 74.312279
v -2.529527 -0.000013 55.081230
v 24.961691 -0.000023 74.312271
v 15.797952 -0.000023 74.312271
v 15.797952 0.000000 35.850185
v 34.125431 0.000023 -2.611904
v 34.125431 0.000000 35.850185
v 15.797952 0.000023 -2.611904
v 6.634212 -0.000023 74.312271
v 34.125423 35.709694 -2.611858
v 34.125431 -0.000023 74.312271
v 34.125431 35.709644 74.312325
v -2.529532 35.709637 74.312332
v -2.529525 0.000016 -2.611900
v -2.529532 35.709690 -2.611855
vn 0.0000 1.0000 0.0000
vn -1.0000 -0.0000 0.0000
vn 1.0000 0.0000 0.0000
vn 0.0000 -1.0000 -0.0000
vn 0.0000 -0.0000 1.0000
vn -0.0000 0.0000 -1.0000
usemtl Black.004
s 1
f 5//1 6//1 7//1
f 8//1 9//1 10//1
f 11//1 12//1 13//1
f 14//1 15//1 16//1
f 12//1 17//1 18//1
f 19//1 13//1 20//1
f 21//1 11//1 22//1
f 9//1 14//1 23//1
f 5//1 24//1 6//1
f 8//1 25//1 9//1
f 11//1 23//1 12//1
f 14//1 26//1 15//1
f 12//1 16//1 17//1
f 19//1 27//1 13//1
f 21//1 10//1 11//1
f 9//1 7//1 14//1
usemtl Red.003
f 28//2 29//2 30//2
f 28//2 24//2 29//2
usemtl Blue.003
f 19//3 33//3 31//3
f 19//3 32//3 33//3
usemtl White.004
f 2//4 31//4 3//4
f 28//5 32//5 24//5
f 4//4 30//4 2//4
f 1//4 28//4 4//4
f 3//4 33//4 1//4
f 23//1 16//1 12//1
f 16//1 32//1 17//1
f 22//1 13//1 27//1
f 13//1 18//1 20//1
f 29//1 10//1 21//1
f 10//1 23//1 11//1
f 25//1 7//1 9//1
f 7//1 26//1 14//1
f 2//4 30//4 31//4
f 28//5 33//5 32//5
f 4//4 28//4 30//4
f 1//4 33//4 28//4
f 3//4 31//4 33//4
f 23//1 14//1 16//1
f 16//1 15//1 32//1
f 22//1 11//1 13//1
f 13//1 12//1 18//1
f 29//1 8//1 10//1
f 10//1 9//1 23//1
f 25//1 5//1 7//1
f 7//1 6//1 26//1
f 29//6 31//6 30//6
f 29//6 19//6 31//6
usemtl Light
f 1//4 2//4 3//4
f 1//4 4//4 2//4
